<?xml version="1.0" encoding="UTF-8" standalone="no"?><!DOCTYPE svg PUBLIC "-//W3C//DTD SVG 1.1//EN" "http://www.w3.org/Graphics/SVG/1.1/DTD/svg11.dtd"><svg width="20" height="20" viewBox="0 0 34 34" version="1.1" xmlns="http://www.w3.org/2000/svg" xmlns:xlink="http://www.w3.org/1999/xlink" xml:space="preserve" xmlns:serif="http://www.serif.com/" style="fill-rule:evenodd;clip-rule:evenodd;stroke-linejoin:round;stroke-miterlimit:2;"><g id="OBJECTS"><g><path d="M33.258,9.972c-1.017,-5.6 -5.938,-9.847 -11.855,-9.847l-8.537,-0c-6.655,0 -12.052,5.372 -12.052,12l-0,9.75c0,6.627 5.395,12 12.052,12l8.537,0c3.552,0 6.742,-1.53 8.947,-3.965c1.047,-1.155 1.28,-2.848 0.55,-4.223c-0.832,-1.567 -1.305,-3.355 -1.305,-5.25c0,-2.812 1.038,-5.383 2.753,-7.355c0.745,-0.857 1.112,-1.992 0.91,-3.11Zm-19.515,3.817c0,0.495 -0.227,0.973 -0.635,1.258c-1.132,0.79 -1.877,2.098 -1.877,3.578c0,1.48 0.742,2.788 1.877,3.578c0.408,0.285 0.635,0.76 0.635,1.258l0,2.54c0,1.293 -1.095,2.33 -2.41,2.245c-1.2,-0.078 -2.11,-1.125 -2.11,-2.323l0,-17.922c0,-1.293 1.095,-2.33 2.41,-2.245c1.2,0.077 2.11,1.125 2.11,2.322l0,5.712Zm11.3,10.585c0,1.055 -0.875,1.905 -1.94,1.875c-1.03,-0.03 -1.825,-0.925 -1.825,-1.953l0,-2.297c0,-0.828 -0.675,-1.5 -1.508,-1.5l-4.143,0c-1.06,0 -1.915,-0.87 -1.883,-1.933c0.03,-1.027 0.93,-1.817 1.96,-1.817l4.065,0c0.832,0 1.508,-0.672 1.508,-1.5l0,-2.047c0,-1.027 0.795,-1.922 1.825,-1.952c1.067,-0.033 1.94,0.82 1.94,1.875l0,11.25Z" style="fill:#f77411;fill-rule:nonzero;"/></g></g></svg>